<?xml version="1.0" standalone="no"?>
<!DOCTYPE svg PUBLIC "-//W3C//DTD SVG 20010904//EN"
 "http://www.w3.org/TR/2001/REC-SVG-20010904/DTD/svg10.dtd">
<svg version="1.0" xmlns="http://www.w3.org/2000/svg"
 width="564.000000pt" height="490.000000pt" viewBox="0 0 564.000000 490.000000"
 preserveAspectRatio="xMidYMid meet">

<g transform="translate(0.000000,490.000000) scale(0.100000,-0.100000)"
fill="#000000" stroke="none">
<path d="M2767 4843 c-4 -33 -14 -67 -22 -73 -17 -14 -20 -53 -5 -80 10 -18
-10 -353 -29 -480 -18 -117 -25 -175 -22 -188 1 -7 -5 -15 -14 -18 -12 -5 -14
-14 -10 -36 10 -45 -60 -238 -86 -238 -15 0 -19 -7 -19 -35 0 -38 -18 -78 -81
-185 -31 -52 -47 -69 -76 -79 -41 -15 -27 -25 -135 98 l-47 54 -66 -58 c-60
-52 -69 -57 -87 -46 -17 11 -24 9 -45 -11 -37 -35 -79 -32 -108 7 -14 17 -25
37 -25 44 0 8 -7 10 -21 6 -15 -5 -27 1 -44 21 -13 16 -27 25 -31 22 -3 -4
-27 5 -52 18 -29 16 -55 23 -70 19 -26 -6 -61 10 -80 37 -7 10 -19 18 -27 18
-7 0 -22 11 -33 25 -11 14 -23 25 -26 25 -4 0 5 -16 20 -35 14 -19 23 -35 20
-35 -4 0 3 -14 15 -32 19 -26 23 -43 21 -91 -2 -39 2 -67 12 -82 10 -15 11
-26 5 -32 -7 -7 -2 -19 16 -38 19 -18 24 -30 17 -37 -7 -7 3 -23 29 -51 23
-23 38 -46 34 -54 -3 -8 -5 -22 -5 -31 0 -9 -13 -26 -30 -37 -19 -13 -26 -23
-20 -29 18 -18 10 -32 -55 -86 -35 -30 -65 -58 -65 -62 0 -4 25 -35 56 -70 71
-80 81 -98 55 -98 -10 0 -45 10 -76 22 -40 15 -59 18 -67 10 -24 -24 21 -61
92 -77 29 -6 38 -19 22 -29 -11 -7 -119 27 -134 42 -26 26 -47 13 -63 -40 -18
-63 -19 -78 -2 -78 7 0 44 -16 82 -35 70 -34 56 -38 -33 -9 -57 19 -58 19 -71
-17 -18 -52 -14 -58 59 -91 83 -39 90 -57 23 -52 -27 2 -127 9 -223 14 -96 6
-191 15 -210 20 -51 13 -202 22 -209 13 -11 -15 -106 -46 -161 -53 -69 -8
-220 -43 -220 -50 0 -4 24 -14 53 -25 28 -10 68 -26 88 -36 19 -10 53 -19 75
-22 22 -2 58 -16 79 -30 22 -15 45 -27 52 -27 7 0 13 -4 13 -8 0 -10 208 -35
221 -26 7 4 195 -6 379 -21 19 -2 45 -3 58 -4 20 -1 22 -6 22 -60 0 -68 2 -65
-93 -102 l-68 -27 -13 31 c-7 18 -21 56 -31 85 -20 54 -42 72 -31 25 12 -50
11 -57 -5 -61 -12 -2 -18 7 -23 32 -11 55 -21 43 -18 -20 7 -102 -40 -179
-134 -219 -52 -22 -63 -31 -59 -45 4 -13 -1 -20 -15 -25 -29 -9 -25 -23 5 -17
16 3 25 0 25 -8 0 -9 12 -11 44 -7 l45 6 20 -52 c10 -28 40 -106 65 -172 25
-66 46 -123 46 -127 0 -3 -16 -15 -35 -27 -22 -12 -33 -25 -29 -34 3 -8 -2
-17 -10 -20 -26 -10 -18 -25 10 -19 19 3 25 1 20 -7 -11 -17 22 -14 83 8 41
14 62 16 98 10 63 -12 131 -54 156 -97 11 -19 23 -30 25 -23 2 6 -3 23 -12 36
-21 31 -20 35 5 35 13 0 23 -10 30 -30 6 -17 15 -30 20 -30 12 0 11 16 0 38
-6 9 -19 43 -30 75 l-21 58 28 10 c77 30 106 39 113 32 4 -5 29 -38 57 -75 48
-64 49 -67 32 -83 -13 -12 -23 -14 -37 -6 -28 15 -86 32 -91 26 -8 -8 27 -115
54 -164 32 -58 20 -77 -34 -50 -31 17 -37 17 -40 5 -2 -9 4 -31 14 -51 15 -31
15 -38 3 -50 -12 -13 -18 -13 -41 -1 -35 18 -40 11 -22 -32 17 -42 6 -60 -24
-41 -28 18 -37 6 -22 -30 16 -39 7 -54 -25 -39 -33 15 -41 4 -21 -27 21 -31
13 -47 -20 -39 -18 5 -24 2 -24 -9 0 -9 5 -19 10 -22 8 -5 7 -11 -1 -21 -9
-11 -15 -12 -26 -3 -19 16 -27 5 -14 -19 8 -15 7 -23 -3 -31 -10 -8 -16 -9
-21 -1 -14 22 -26 9 -20 -21 7 -29 5 -31 -14 -26 -24 6 -27 -3 -9 -21 10 -10
10 -17 0 -32 -13 -22 -3 -27 16 -8 9 9 15 9 24 0 17 -17 31 -15 24 4 -9 24 2
36 24 24 23 -12 37 4 20 25 -14 17 3 29 31 20 18 -6 20 -4 14 14 -10 31 2 42
30 29 30 -14 43 -5 25 17 -20 24 2 42 34 27 29 -13 44 1 26 23 -7 8 -10 22 -6
30 5 14 9 14 35 0 17 -8 32 -15 36 -15 10 0 5 36 -7 48 -21 21 4 33 40 20 39
-15 49 -6 33 28 -13 30 3 62 23 45 6 -5 28 -12 50 -16 37 -7 38 -7 31 16 -4
13 -14 32 -23 42 -12 13 -13 20 -4 29 8 8 26 4 69 -15 60 -27 144 -49 152 -41
3 3 0 14 -7 24 -7 11 -12 30 -12 43 0 13 -5 28 -12 35 -10 10 -8 16 7 32 20
19 21 18 78 -17 60 -38 68 -52 41 -74 -8 -7 -26 -34 -40 -60 -13 -26 -28 -50
-34 -54 -6 -3 -19 -24 -30 -46 -11 -21 -27 -39 -35 -39 -17 0 -90 -44 -100
-60 -11 -18 10 -11 45 15 38 28 47 27 31 -4 -14 -25 -48 -44 -63 -35 -7 5 -8
3 -4 -5 5 -7 14 -10 21 -7 17 6 22 -9 19 -58 -2 -42 -22 -88 -35 -81 -9 6 -6
-15 4 -32 5 -7 5 -18 1 -25 -5 -8 -2 -9 9 -5 10 3 17 2 17 -3 0 -5 9 -2 20 7
11 10 20 25 20 35 0 10 4 18 9 18 4 0 6 -11 3 -25 -2 -14 -7 -25 -11 -25 -4 0
-7 -9 -8 -20 -2 -30 -41 -110 -52 -110 -6 0 -11 -9 -11 -19 0 -11 -5 -23 -10
-26 -15 -9 -12 -25 5 -25 9 0 18 7 21 15 4 8 12 15 19 15 7 0 15 14 19 30 8
40 53 135 71 150 8 7 15 22 15 34 0 30 40 110 92 186 24 36 61 94 81 130 52
93 64 107 79 92 7 -7 21 -12 31 -12 18 0 19 -5 13 -67 -4 -38 -9 -129 -12
-203 -4 -142 -7 -185 -19 -263 -5 -29 -3 -57 3 -70 6 -12 13 -31 17 -42 5 -13
9 -15 12 -7 3 7 23 12 50 12 55 0 73 17 73 67 0 21 3 55 6 75 6 37 8 38 48 38
62 0 69 -8 61 -74 -4 -30 -4 -71 -1 -90 6 -31 11 -35 49 -41 23 -4 46 -13 50
-19 6 -8 10 -8 14 2 2 7 12 19 20 28 10 9 19 46 24 95 4 43 10 87 13 96 5 16
25 174 41 326 l6 57 48 0 c43 0 48 -3 58 -30 6 -16 24 -38 41 -47 28 -16 29
-21 42 -132 8 -64 14 -140 14 -169 1 -28 4 -52 9 -52 4 0 -2 -9 -13 -20 -22
-22 -26 -45 -9 -55 15 -10 29 -52 35 -109 19 -176 22 -183 21 -49 -1 93 2 136
11 145 19 19 14 55 -10 73 -20 13 -21 17 -8 25 8 5 10 10 4 10 -7 0 -13 54
-17 157 l-7 157 30 29 c16 15 34 44 40 63 16 47 52 62 82 34 12 -11 27 -20 34
-20 6 0 17 -15 24 -32 7 -18 15 -42 20 -53 6 -16 28 -68 76 -180 3 -6 -16 -21
-41 -33 -30 -14 -45 -28 -45 -41 0 -10 -12 -26 -26 -36 -43 -28 -19 -29 38 -1
29 14 75 28 101 31 43 4 49 2 59 -21 8 -17 18 -24 32 -22 22 4 23 8 12 45 -6
18 0 26 31 45 44 28 106 54 146 62 39 9 33 23 -8 18 -20 -2 -42 1 -50 8 -13
11 -23 10 -55 0 -48 -16 -65 -10 -74 27 -4 15 -13 35 -20 43 -7 8 -27 54 -46
102 -24 63 -30 91 -22 100 10 13 12 18 12 40 0 7 31 -19 70 -57 66 -66 70 -68
88 -52 26 24 45 21 83 -13 45 -40 108 -70 146 -70 18 0 38 -6 45 -13 77 -74
121 -74 54 1 -31 33 -49 75 -36 81 9 4 58 -17 64 -28 4 -5 19 -16 34 -24 15
-8 49 -26 76 -40 36 -20 63 -27 103 -27 67 0 107 -18 158 -70 22 -22 46 -40
54 -40 8 0 23 -7 32 -16 33 -29 -19 66 -56 106 -43 45 -55 77 -55 149 0 45 -7
72 -30 117 -16 32 -30 64 -30 70 0 6 -9 19 -19 28 -10 9 -21 28 -24 42 -7 37
28 31 67 -11 32 -33 66 -46 66 -25 0 5 -15 26 -32 46 -25 29 -33 47 -35 81 -1
45 -39 121 -74 151 -23 20 -24 49 -3 73 15 17 14 21 -14 56 -17 21 -49 56 -71
78 -37 35 -52 65 -34 65 4 0 42 -18 85 -40 158 -83 290 -120 424 -120 135 0
149 27 61 118 -95 98 -291 197 -469 236 -45 10 -33 21 36 35 36 7 67 19 69 26
3 6 23 15 45 19 22 3 42 12 45 20 3 8 21 17 39 21 18 4 59 19 90 34 57 26 57
26 64 79 9 75 -4 200 -23 210 -9 6 -15 23 -15 45 0 45 -46 120 -85 140 -29 15
-167 32 -240 29 -24 0 -44 2 -44 6 -7 42 -6 62 2 62 6 0 7 -4 4 -10 -8 -13 7
-13 42 3 19 7 28 18 25 27 -3 10 0 9 10 -3 12 -16 16 -16 43 -3 17 8 42 16 56
18 15 2 33 9 40 14 16 13 69 28 87 25 6 -1 12 3 12 8 0 6 19 15 43 21 23 6 53
17 67 24 14 8 41 17 60 21 19 4 37 11 40 16 3 4 28 14 55 21 28 7 56 18 62 24
7 7 30 15 52 19 35 6 39 10 38 32 -2 23 5 28 73 51 41 14 77 27 79 28 4 4 -70
227 -79 237 -4 5 -28 -1 -54 -12 -93 -43 -99 -44 -116 -21 l-15 20 -42 -20
c-23 -11 -47 -20 -53 -20 -6 0 -25 -7 -42 -16 -16 -8 -40 -17 -52 -18 -11 -2
-43 -13 -69 -25 -27 -12 -51 -20 -54 -17 -3 3 -18 -3 -33 -14 -16 -11 -37 -20
-47 -20 -11 0 -39 -9 -63 -21 -24 -12 -54 -22 -66 -24 -13 -1 -34 -10 -48 -19
-14 -9 -34 -16 -46 -16 -11 0 -20 -4 -20 -9 0 -5 -13 -14 -30 -21 -16 -7 -28
-17 -27 -22 1 -6 -10 -14 -25 -19 -16 -4 -28 -5 -28 -3 0 2 29 43 65 91 58 79
63 89 48 100 -15 12 -12 19 28 77 24 37 56 70 72 77 37 16 75 62 82 102 4 20
-2 57 -14 97 l-20 64 20 22 c12 12 19 30 17 40 -2 11 5 27 15 37 10 10 15 22
12 27 -4 6 -2 10 3 10 16 0 23 30 8 36 -15 6 -59 -31 -69 -59 -4 -9 -10 -17
-14 -16 -22 4 -34 -3 -44 -25 -11 -22 -18 -24 -101 -28 -84 -3 -91 -5 -114
-31 -14 -16 -30 -48 -36 -71 -12 -44 -83 -146 -107 -154 -16 -5 9 33 58 87 22
24 29 41 25 57 -3 12 -1 32 6 43 12 24 4 27 -19 7 -9 -7 -30 -16 -48 -19 -31
-6 -30 -3 73 133 58 77 110 140 115 140 5 0 16 11 24 24 13 20 14 32 6 63 -9
31 -7 44 9 75 23 44 15 48 -26 13 -16 -14 -42 -25 -57 -25 -40 0 -63 -15 -75
-48 -8 -24 -79 -122 -289 -401 -2 -2 -6 -2 -9 2 -7 7 41 74 71 98 17 14 18 20
7 43 -6 14 -8 26 -3 26 5 0 11 9 14 20 6 23 -5 26 -23 6 -6 -8 -23 -16 -38
-18 -15 -2 -31 -12 -37 -24 -5 -11 -25 -38 -43 -60 -43 -51 -24 -14 25 51 22
28 51 56 65 63 76 36 95 105 58 209 -24 68 -23 63 -5 63 8 0 17 12 21 28 7 34
10 39 34 80 11 18 18 38 15 43 -9 14 -35 11 -35 -5 0 -7 -9 -16 -20 -19 -11
-3 -20 -12 -20 -20 0 -8 -11 -18 -25 -21 -14 -4 -29 -16 -33 -27 -7 -17 -18
-20 -87 -22 -49 -2 -89 -8 -103 -17 -26 -16 -62 -79 -62 -106 0 -10 -19 -42
-42 -73 -24 -30 -46 -59 -49 -64 -4 -5 -14 -5 -25 1 -17 9 -28 -1 -82 -69 -35
-43 -66 -79 -70 -79 -32 1 -142 194 -142 249 0 19 -6 30 -17 33 -30 8 -98 212
-81 242 6 11 5 18 -5 22 -9 3 -17 27 -22 62 -4 31 -9 71 -11 87 -27 192 -46
456 -39 546 6 63 4 77 -9 82 -11 4 -16 23 -18 69 l-3 63 -8 -62z m59 -1011 c7
-29 15 -64 18 -77 6 -25 6 -25 -70 -25 -74 0 -76 1 -71 23 3 12 11 48 17 80
l13 58 41 -3 c40 -3 41 -3 52 -56z m43 -248 c29 -14 91 -77 91 -92 0 -4 -66
-6 -147 -5 -82 1 -167 -2 -190 -6 -35 -7 -40 -6 -36 8 8 21 63 80 88 94 54 29
137 30 194 1z m-1039 -86 c0 -14 -19 1 -31 25 -12 22 -12 22 10 3 11 -11 21
-23 21 -28z m-36 -3 c9 -14 13 -25 10 -25 -11 0 -44 32 -44 42 0 16 18 8 34
-17z m433 9 c9 -23 -11 -38 -26 -20 -13 16 -7 36 10 36 5 0 12 -7 16 -16z
m-447 -60 c0 -4 -11 3 -25 16 -13 12 -22 27 -19 32 6 9 44 -33 44 -48z m129
10 c31 -40 25 -52 -9 -19 -16 16 -30 32 -30 37 0 16 19 7 39 -18z m263 -16
c-16 -16 -37 4 -28 28 6 16 8 16 23 1 13 -13 15 -19 5 -29z m1168 25 c-1 -30
-37 -65 -60 -58 -19 6 -19 7 6 41 28 37 54 45 54 17z m-1605 -13 c27 -30 12
-34 -15 -5 -13 14 -19 25 -13 25 5 0 18 -9 28 -20z m535 -24 c-6 -6 -15 -5
-25 4 -12 10 -13 16 -3 27 10 13 14 12 25 -3 8 -11 10 -21 3 -28z m-375 -35
c-9 -8 -65 52 -58 62 4 6 19 -4 34 -23 16 -19 26 -36 24 -39z m-175 16 c0 -6
-9 -2 -20 8 -11 10 -20 23 -20 28 0 6 9 2 20 -8 11 -10 20 -23 20 -28z m120
-8 c12 -16 20 -33 17 -36 -6 -6 -56 47 -57 60 0 17 20 5 40 -24z m290 -51 c1
-20 -23 -16 -41 6 -11 14 -27 32 -34 40 -10 10 -11 16 -3 24 8 8 20 1 44 -26
18 -20 33 -40 34 -44z m-446 53 c10 -10 14 -21 9 -24 -4 -3 -16 6 -26 19 -21
28 -8 32 17 5z m536 4 c10 -12 10 -19 2 -27 -15 -15 -48 14 -38 31 10 15 21
14 36 -4z m1230 -8 c0 -7 -7 -23 -16 -35 -12 -18 -19 -20 -36 -11 -20 11 -20
11 3 35 24 26 49 32 49 11z m-1798 -14 c10 -9 18 -20 18 -25 0 -16 -18 -8 -34
17 -19 29 -11 33 16 8z m161 -19 c11 -14 16 -28 13 -31 -8 -9 -56 37 -56 53 0
19 22 8 43 -22z m273 -63 c-12 -18 -21 -13 -55 29 -45 56 -29 73 22 22 22 -22
36 -45 33 -51z m-289 3 c-10 -10 -57 36 -57 55 0 11 10 6 32 -16 18 -18 29
-36 25 -39z m235 -18 c6 -11 6 -22 0 -28 -6 -6 -23 6 -46 33 -26 31 -33 45
-24 50 13 9 52 -22 70 -55z m1748 10 c-17 -25 -35 -46 -40 -46 -6 0 6 23 26
50 45 63 58 59 14 -4z m-2043 22 c13 -12 23 -28 23 -37 0 -10 -9 -6 -30 14
-29 28 -38 45 -23 45 4 0 17 -10 30 -22z m1813 3 c0 -20 -13 -41 -25 -41 -21
0 -28 19 -15 35 14 17 40 20 40 6z m-1840 -42 c12 -16 19 -33 16 -37 -7 -6
-55 46 -56 61 0 17 20 5 40 -24z m258 -8 c20 -26 28 -42 21 -47 -12 -7 -79 54
-79 73 0 25 27 13 58 -26z m1009 15 c251 -45 451 -148 621 -319 389 -391 441
-979 129 -1440 -97 -144 -282 -298 -452 -378 -139 -65 -256 -91 -435 -97 -227
-6 -363 23 -554 121 -334 171 -553 488 -602 873 -15 113 -15 135 0 248 35 273
140 491 324 674 168 168 373 274 607 316 100 18 266 19 362 2z m675 -38 c24
-19 6 -63 -20 -49 -27 14 -45 39 -37 51 9 14 38 13 57 -2z m-1700 -60 c-17
-17 -58 23 -48 48 6 16 9 15 34 -9 21 -21 24 -29 14 -39z m-64 13 c22 -28 28
-42 20 -47 -13 -8 -80 65 -72 78 9 15 21 8 52 -31z m-18 -73 c0 -11 -15 -17
-26 -10 -5 4 -22 22 -37 41 -21 25 -25 36 -16 42 9 5 25 -5 46 -29 18 -20 32
-40 33 -44z m1880 28 c0 -31 -16 -42 -36 -25 -13 10 -12 14 2 30 23 26 34 24
34 -5z m-1929 -79 c-11 -11 -13 -9 -64 50 -11 12 -16 27 -11 34 5 8 19 -1 47
-30 29 -31 36 -46 28 -54z m-70 12 c21 -26 28 -44 22 -50 -6 -6 -22 5 -46 34
-33 40 -38 57 -16 57 4 0 22 -18 40 -41z m2109 -3 c0 -7 -9 -25 -21 -40 -17
-21 -24 -24 -35 -15 -19 15 -18 21 6 47 23 25 50 29 50 8z m810 -35 c0 -5 -9
-11 -20 -14 -22 -6 -28 8 -7 16 19 8 27 8 27 -2z m170 -22 c0 -12 -13 -26 -36
-36 -31 -15 -36 -15 -44 -3 -18 28 -10 47 23 57 40 12 57 7 57 -18z m-3172
-12 c2 -10 -3 -17 -11 -17 -16 0 -30 24 -19 34 10 10 27 1 30 -17z m3023 9
c-15 -17 -49 -27 -56 -15 -5 6 20 18 64 28 2 1 -2 -5 -8 -13z m-757 -65 c-29
-45 -36 -48 -53 -27 -10 11 -4 23 30 58 33 33 43 39 46 26 3 -9 -8 -35 -23
-57z m631 49 c-3 -5 -16 -10 -28 -9 -21 0 -21 1 -2 9 28 12 37 12 30 0z m145
-10 c0 -5 -14 -17 -31 -25 -29 -15 -31 -15 -27 1 2 10 14 21 28 25 14 4 26 7
28 8 1 1 2 -3 2 -9z m-3100 -15 c9 -11 10 -19 2 -27 -14 -14 -32 -1 -32 23 0
23 13 25 30 4z m2986 6 c-8 -13 -66 -32 -66 -21 0 4 12 13 28 18 35 13 44 14
38 3z m-2886 -16 c20 -24 -2 -41 -24 -20 -16 16 -14 35 3 35 5 0 14 -7 21 -15z
m2750 -5 c-8 -5 -22 -10 -30 -10 -13 0 -13 1 0 10 8 5 22 10 30 10 13 0 13 -1
0 -10z m134 -25 c-22 -16 -54 -20 -54 -5 0 9 61 30 69 23 3 -2 -4 -10 -15 -18z
m130 16 c5 -8 -35 -31 -54 -31 -19 0 -10 21 13 30 29 11 35 12 41 1z m-248
-16 c-11 -8 -27 -15 -35 -15 -13 1 -12 4 3 15 11 8 27 15 35 15 13 -1 12 -4
-3 -15z m-2806 -37 c0 -13 -27 -9 -39 5 -8 10 -7 17 1 25 8 8 15 7 24 -6 8 -9
14 -20 14 -24z m2680 22 c-8 -5 -22 -9 -30 -9 -10 0 -8 3 5 9 27 12 43 12 25
0z m149 -14 c-19 -19 -59 -30 -59 -17 0 13 24 26 52 28 18 2 19 0 7 -11z m121
5 c0 -14 -58 -32 -65 -20 -4 5 4 13 17 18 30 13 48 13 48 2z m110 -5 c-20 -19
-60 -30 -60 -17 0 13 30 30 55 31 17 0 17 -2 5 -14z m-360 -11 c-35 -20 -62
-19 -36 0 11 8 29 15 40 15 19 -1 19 -2 -4 -15z m498 -12 c-2 -8 -17 -21 -35
-28 -28 -12 -32 -12 -36 6 -4 15 2 23 26 33 36 15 50 11 45 -11z m-628 -3
c-20 -13 -33 -13 -25 0 3 6 14 10 23 10 15 0 15 -2 2 -10z m160 -9 c0 -12 -59
-35 -68 -27 -4 4 0 13 9 20 20 14 59 18 59 7z m111 -5 c-14 -17 -49 -27 -56
-16 -7 11 24 29 49 30 15 0 16 -3 7 -14z m100 -6 c-28 -24 -41 -25 -41 -6 0
14 18 23 50 25 10 0 7 -6 -9 -19z m139 15 c0 -9 -57 -34 -64 -28 -11 11 -6 21
12 26 25 7 52 8 52 2z m-475 -14 c-16 -14 -55 -23 -55 -12 0 9 20 17 50 20 8
1 10 -2 5 -8z m-125 -10 c0 -9 -41 -23 -49 -16 -3 4 28 20 47 24 1 1 2 -3 2
-8z m138 -25 c-20 -19 -55 -29 -63 -16 -7 11 28 28 58 29 16 1 16 -1 5 -13z
m113 0 c-14 -17 -49 -27 -56 -16 -7 11 24 29 49 30 15 0 16 -3 7 -14z m129 9
c0 -9 -57 -34 -64 -28 -11 11 -6 21 12 26 25 7 52 8 52 2z m104 -10 c-21 -16
-54 -20 -54 -6 0 12 18 19 49 20 24 1 24 1 5 -14z m112 0 c-22 -16 -46 -20
-46 -7 0 15 13 22 39 22 25 -1 25 -1 7 -15z m-581 -4 c-16 -14 -55 -23 -55
-12 0 9 20 17 50 20 8 1 10 -2 5 -8z m359 -36 c-22 -16 -54 -20 -54 -5 0 9 61
30 69 23 3 -2 -4 -10 -15 -18z m136 17 c0 -9 -44 -32 -60 -32 -23 0 -7 20 23
29 17 5 33 10 35 10 1 1 2 -3 2 -7z m96 -7 c-19 -15 -46 -20 -46 -10 0 6 40
24 55 24 6 0 1 -6 -9 -14z m-566 0 c0 -9 -57 -34 -64 -28 -11 11 -6 21 12 26
25 7 52 8 52 2z m95 -14 c-19 -11 -34 -15 -40 -9 -13 12 12 28 45 28 25 0 25
0 -5 -19z m115 -1 c-21 -11 -36 -14 -39 -8 -5 14 19 28 49 27 23 0 23 -1 -10
-19z m-300 -10 c0 -5 -4 -10 -10 -10 -5 0 -10 5 -10 10 0 6 5 10 10 10 6 0 10
-4 10 -10z m206 -26 c-23 -16 -56 -19 -56 -4 0 10 61 30 70 23 3 -3 -4 -11
-14 -19z m134 18 c0 -9 -44 -32 -61 -32 -20 0 -3 24 22 31 35 10 39 10 39 1z
m110 -2 c0 -16 -51 -33 -63 -21 -6 6 2 13 24 19 19 6 35 11 37 11 1 1 2 -4 2
-9z m97 -6 c-16 -8 -34 -13 -40 -11 -7 3 -1 9 13 15 38 16 59 13 27 -4z m108
6 c-28 -12 -37 -12 -30 0 3 6 16 10 28 9 21 0 21 -1 2 -9z m-728 -16 c-16 -9
-31 -13 -34 -10 -3 3 5 10 18 15 37 15 47 12 16 -5z m159 1 c-22 -17 -56 -20
-56 -6 0 10 23 18 55 20 20 0 20 0 1 -14z m9 -41 c-21 -16 -45 -15 -48 1 -2
10 53 25 63 17 3 -2 -4 -10 -15 -18z m135 18 c0 -15 -52 -34 -63 -23 -7 7 -3
14 14 20 31 12 49 13 49 3z m120 -1 c0 -13 -58 -32 -65 -21 -7 11 23 29 48 30
9 0 17 -4 17 -9z m100 -6 c-29 -17 -50 -19 -50 -6 0 10 23 18 55 19 17 1 17
-1 -5 -13z m110 11 c0 -2 -9 -6 -20 -9 -11 -3 -20 -1 -20 4 0 5 9 9 20 9 11 0
20 -2 20 -4z m-3101 -58 c16 -6 21 -12 14 -19 -11 -11 -123 26 -123 40 0 17
14 18 48 4 20 -8 48 -20 61 -25z m2496 22 c-27 -12 -43 -12 -25 0 8 5 22 9 30
9 10 0 8 -3 -5 -9z m501 1 c-3 -5 -16 -11 -28 -14 -22 -6 -22 -5 -4 8 22 17
40 20 32 6z m-335 -15 c-14 -17 -49 -27 -56 -16 -7 11 24 29 49 30 15 0 16 -3
7 -14z m129 9 c0 -2 -14 -12 -31 -21 -22 -11 -34 -13 -42 -5 -7 7 -3 13 14 20
26 10 59 14 59 6z m90 -10 c-29 -17 -50 -19 -50 -6 0 10 23 18 55 19 17 1 17
-1 -5 -13z m-300 -15 c0 -5 -8 -10 -17 -10 -15 0 -16 2 -3 10 19 12 20 12 20
0z m305 -10 c-3 -5 -14 -10 -23 -10 -15 0 -15 2 -2 10 20 13 33 13 25 0z
m-359 -9 c-6 -9 -46 -22 -46 -15 0 3 10 9 23 14 29 11 29 11 23 1z m154 4 c0
-9 -57 -34 -64 -28 -11 11 -6 21 12 26 25 7 52 8 52 2z m87 -11 c-16 -9 -32
-13 -35 -9 -9 9 19 25 43 24 16 0 15 -2 -8 -15z m-87 -28 c-8 -8 -26 -17 -40
-21 -22 -7 -23 -6 -12 8 8 9 23 18 35 20 12 2 24 5 27 6 2 0 -2 -5 -10 -13z
m100 4 c-8 -5 -22 -10 -30 -10 -13 0 -13 1 0 10 8 5 22 10 30 10 13 0 13 -1 0
-10z m-185 -10 c-3 -5 -11 -10 -16 -10 -6 0 -7 5 -4 10 3 6 11 10 16 10 6 0 7
-4 4 -10z m-55 -20 c-8 -5 -19 -10 -25 -10 -5 0 -3 5 5 10 8 5 20 10 25 10 6
0 3 -5 -5 -10z m130 -10 c-8 -5 -22 -10 -30 -10 -13 0 -13 1 0 10 8 5 22 10
30 10 13 0 13 -1 0 -10z m-2756 -21 c31 -12 56 -26 56 -31 0 -11 -23 -4 -86
23 -42 19 -54 29 -35 29 5 0 34 -10 65 -21z m-483 -128 c21 -22 29 -39 29 -66
0 -27 -8 -44 -29 -66 -63 -62 -161 -21 -161 68 0 87 98 126 161 64z m3359
-101 c0 -5 -11 -10 -25 -10 -14 0 -25 5 -25 10 0 6 11 10 25 10 14 0 25 -4 25
-10z m-180 -9 c0 -12 -37 -24 -50 -16 -20 12 -10 25 20 25 17 0 30 -4 30 -9z
m98 -18 c2 -9 -7 -13 -27 -13 -21 0 -31 5 -31 16 0 19 51 16 58 -3z m82 -13
c0 -5 -11 -10 -25 -10 -14 0 -25 5 -25 10 0 6 11 10 25 10 14 0 25 -4 25 -10z
m-180 -15 c0 -9 -9 -15 -25 -15 -16 0 -25 6 -25 15 0 9 9 15 25 15 16 0 25 -6
25 -15z m100 -10 c0 -10 -10 -15 -30 -15 -29 0 -38 9 -23 23 13 13 53 7 53 -8z
m90 -10 c0 -9 -9 -15 -25 -15 -16 0 -25 6 -25 15 0 9 9 15 25 15 16 0 25 -6
25 -15z m-182 -27 c-3 -7 -15 -13 -28 -13 -13 0 -25 6 -27 13 -3 8 6 12 27 12
21 0 30 -4 28 -12z m97 -9 c0 -8 -12 -15 -27 -17 -27 -3 -38 14 -22 31 12 11
49 1 49 -14z m95 -9 c0 -5 -11 -10 -25 -10 -14 0 -25 5 -25 10 0 6 11 10 25
10 14 0 25 -4 25 -10z m-192 -32 c-7 -20 -48 -23 -48 -4 0 11 9 16 26 16 16 0
24 -5 22 -12z m102 -3 c0 -10 -10 -15 -30 -15 -20 0 -30 5 -30 15 0 10 10 15
30 15 20 0 30 -5 30 -15z m90 -5 c0 -5 -11 -10 -25 -10 -14 0 -25 5 -25 10 0
6 11 10 25 10 14 0 25 -4 25 -10z m-190 -39 c0 -13 -37 -24 -50 -16 -6 4 -8
11 -5 16 8 12 55 12 55 0z m100 -6 c0 -10 -10 -15 -30 -15 -29 0 -38 9 -23 23
13 13 53 7 53 -8z m91 0 c0 -5 -12 -11 -26 -13 -18 -2 -25 1 -25 13 0 12 7 15
25 13 14 -2 26 -7 26 -13z m-194 -49 c-6 -17 -38 -20 -48 -4 -14 21 -11 25 21
20 17 -2 29 -9 27 -16z m103 -1 c0 -10 -10 -15 -30 -15 -20 0 -30 5 -30 15 0
10 10 15 30 15 20 0 30 -5 30 -15z m90 0 c0 -8 -9 -15 -20 -15 -11 0 -20 7
-20 15 0 8 9 15 20 15 11 0 20 -7 20 -15z m-190 -40 c0 -9 -9 -15 -25 -15 -16
0 -25 6 -25 15 0 9 9 15 25 15 16 0 25 -6 25 -15z m98 -2 c2 -9 -7 -13 -27
-13 -30 0 -39 9 -24 24 11 10 46 3 51 -11z m95 2 c-3 -13 -53 -20 -53 -7 0 15
13 23 35 20 11 -2 19 -7 18 -13z m-3069 -56 c-2 -4 -28 -17 -57 -27 -28 -11
-60 -23 -69 -27 -21 -8 -23 3 -4 28 19 24 119 59 128 44 4 -6 5 -14 2 -18z
m2877 6 c0 -5 -12 -11 -26 -13 -18 -2 -25 1 -25 13 0 12 7 15 25 13 14 -2 26
-7 26 -13z m97 3 c-3 -7 -15 -13 -28 -13 -13 0 -25 6 -27 13 -3 8 6 12 27 12
21 0 30 -4 28 -12z m92 2 c0 -5 -11 -10 -25 -10 -14 0 -25 5 -25 10 0 6 11 10
25 10 14 0 25 -4 25 -10z m-10 -30 c0 -5 -12 -10 -26 -10 -14 0 -23 4 -19 10
3 6 15 10 26 10 10 0 19 -4 19 -10z m-180 -10 c0 -5 -11 -10 -25 -10 -14 0
-25 5 -25 10 0 6 11 10 25 10 14 0 25 -4 25 -10z m100 0 c0 -5 -13 -10 -30
-10 -16 0 -30 5 -30 10 0 6 14 10 30 10 17 0 30 -4 30 -10z m-10 -29 c0 -9
-41 -23 -48 -16 -2 2 -1 8 3 14 8 13 45 15 45 2z m-2751 -58 c7 -32 30 -105
52 -162 21 -58 38 -105 36 -106 -5 -4 -70 -25 -77 -25 -3 0 -28 31 -54 70 -42
61 -49 79 -57 146 -6 42 -11 81 -12 86 -2 8 66 42 93 47 3 1 11 -25 19 -56z
m2661 53 c0 -2 -11 -6 -25 -8 -14 -3 -25 -1 -25 3 0 5 11 9 25 9 14 0 25 -2
25 -4z m0 -25 c0 -10 -42 -23 -49 -15 -7 6 20 24 37 24 6 0 12 -4 12 -9z
m-2840 -25 c0 -8 11 -41 24 -73 29 -69 91 -229 100 -259 6 -18 -2 -24 -61 -47
-127 -49 -108 -63 -186 139 -38 101 -64 181 -59 186 13 13 144 66 165 67 9 1
17 -5 17 -13z m2830 -113 c55 -38 62 -53 25 -53 -24 0 -104 48 -105 63 0 14
56 7 80 -10z m97 -10 c18 -8 30 -19 27 -24 -11 -18 -51 -8 -84 22 l-35 30 30
-6 c17 -4 45 -13 62 -22z m-154 -17 c15 -11 27 -23 27 -27 0 -12 -59 -16 -70
-5 -8 8 -13 7 -19 -3 -6 -9 -11 -10 -15 -2 -4 6 -2 11 3 11 6 0 11 11 11 23 0
42 8 43 63 3z m186 -80 c27 -28 30 -34 16 -40 -30 -11 -49 -6 -77 21 -34 32
-35 40 -5 46 12 2 24 5 28 6 3 0 20 -14 38 -33z m85 5 l27 -28 -26 -7 c-27 -7
-38 -1 -77 37 -25 24 -23 27 15 27 24 0 41 -8 61 -29z m74 -1 l47 -30 -36 0
c-26 0 -42 8 -64 30 -39 40 -12 41 53 0z m-231 -23 c18 -21 19 -26 6 -31 -27
-11 -44 -6 -79 22 -41 33 -42 40 -6 44 34 5 51 -3 79 -35z m-104 -2 c33 -29
34 -35 5 -35 -20 0 -108 45 -108 55 0 3 17 5 38 5 25 -1 46 -9 65 -25z m417
-50 c8 -10 9 -15 2 -15 -6 0 -9 -7 -6 -15 4 -10 0 -15 -12 -15 -21 0 -54 28
-54 47 0 18 54 17 70 -2z m-136 -40 c16 -25 16 -25 -16 -25 -19 0 -41 9 -55
22 -29 27 -29 36 0 40 29 5 51 -6 71 -37z m60 23 c22 -30 20 -38 -7 -38 -20 0
-67 39 -67 55 0 3 13 5 29 5 20 0 35 -8 45 -22z m-154 -18 c24 -34 16 -37 -39
-17 -51 17 -67 34 -39 40 48 9 57 6 78 -23z m-2785 -131 c0 -21 -107 -56 -136
-43 -20 9 -15 13 47 36 74 28 89 29 89 7z m2568 -96 c-5 -12 -9 -11 -26 5 -11
11 -16 25 -12 32 10 16 45 -17 38 -37z m-199 -76 c-10 -27 -37 -20 -74 18 -33
34 -33 35 -15 55 l19 21 38 -39 c27 -26 37 -43 32 -55z m150 32 c-9 -15 -31
-10 -38 7 -10 26 4 37 25 18 10 -9 16 -21 13 -25z m-243 -61 c72 -80 41 -108
-34 -31 -35 36 -43 50 -35 60 17 20 27 16 69 -29z m-53 -103 c-5 -32 -35 -29
-72 8 l-34 34 21 22 21 21 34 -32 c20 -20 32 -41 30 -53z m213 18 c-9 -32 -8
-40 9 -58 24 -26 25 -48 4 -69 -22 -23 -61 -20 -74 5 -9 16 -18 19 -37 14 -60
-15 -83 -17 -83 -8 0 6 23 13 52 16 44 6 56 3 74 -14 15 -14 29 -19 42 -15 28
9 34 41 11 62 -16 15 -19 26 -14 63 4 25 9 53 12 61 12 30 15 -17 4 -57z m188
-87 c6 -7 8 -21 5 -30 -6 -15 -8 -15 -20 1 -25 33 -11 61 15 29z m-29 -51 c10
-12 10 -18 0 -31 -11 -13 -15 -13 -27 -1 -13 13 -8 47 7 47 4 0 13 -7 20 -15z
m-422 -33 c2 -12 -1 -22 -6 -22 -14 0 -43 36 -35 44 14 13 38 1 41 -22z m371
-59 c-10 -11 -15 -11 -30 3 -15 13 -16 20 -8 31 10 11 15 11 30 -3 15 -13 16
-20 8 -31z m-425 14 c6 -9 7 -19 3 -23 -9 -10 -48 26 -41 38 8 12 25 6 38 -15z
m-1224 -22 c0 -16 -6 -25 -16 -25 -11 0 -14 5 -10 16 3 9 6 20 6 25 0 5 5 9
10 9 6 0 10 -11 10 -25z m40 -10 c0 -16 -6 -25 -16 -25 -11 0 -14 5 -10 16 3
9 6 20 6 25 0 5 5 9 10 9 6 0 10 -11 10 -25z m1556 -24 c-10 -15 -31 -14 -45
3 -10 11 -8 17 6 25 21 11 50 -10 39 -28z m-1446 3 c0 -8 -7 -14 -15 -14 -15
0 -21 21 -9 33 10 9 24 -2 24 -19z m47 -7 c-6 -20 -27 -19 -27 2 0 14 5 19 15
14 9 -3 14 -10 12 -16z m103 -8 c0 -11 -4 -17 -10 -14 -5 3 -10 13 -10 21 0 8
5 14 10 14 6 0 10 -9 10 -21z m44 -4 c-4 -8 -10 -15 -15 -15 -5 0 -9 7 -9 15
0 8 7 15 15 15 9 0 12 -6 9 -15z m1184 3 c16 -16 15 -28 -2 -28 -17 0 -38 24
-29 33 9 10 17 9 31 -5z m-1548 -168 c0 -20 -5 -30 -15 -30 -16 0 -19 17 -9
44 10 26 24 18 24 -14z m191 20 c12 -7 19 -21 19 -39 0 -71 -92 -81 -98 -11
-5 50 33 74 79 50z m-141 -14 c0 -22 -11 -46 -21 -46 -5 0 -9 14 -9 30 0 20 5
30 15 30 8 0 15 -6 15 -14z m250 -36 c0 -20 -5 -30 -15 -30 -16 0 -19 17 -9
44 10 26 24 18 24 -14z m50 6 c0 -22 -11 -46 -21 -46 -5 0 -9 14 -9 30 0 20 5
30 15 30 8 0 15 -6 15 -14z m-353 -222 c-3 -31 -8 -59 -11 -62 -14 -13 -18 11
-11 63 9 74 30 74 22 -1z m43 -14 c-16 -84 -24 -78 -20 15 2 46 9 60 21 48 6
-6 5 -31 -1 -63z m224 -12 c-9 -69 -24 -86 -24 -26 0 51 7 78 21 78 6 0 7 -22
3 -52z m41 -5 c-7 -58 -11 -70 -20 -62 -8 9 8 119 18 119 6 0 7 -22 2 -57z"/>
<path d="M2680 2935 c-205 -36 -384 -145 -502 -305 -45 -62 -101 -183 -124
-270 -19 -71 -22 -105 -19 -205 3 -130 18 -197 64 -299 149 -328 507 -513 853
-441 286 60 483 235 589 525 22 59 24 81 24 230 0 147 -3 173 -24 235 -38 112
-97 213 -168 290 -34 37 -138 125 -147 125 -3 0 -23 11 -44 25 -55 36 -158 72
-258 89 -104 19 -142 19 -244 1z"/>
<path d="M866 2432 c-4 -3 6 -19 21 -35 l28 -29 -24 -19 c-13 -11 -21 -22 -18
-25 7 -8 59 32 56 43 -3 15 -57 72 -63 65z"/>
<path d="M2543 654 c-8 -21 13 -42 28 -27 13 13 5 43 -11 43 -6 0 -13 -7 -17
-16z"/>
<path d="M1972 4739 c-13 -5 -21 -13 -18 -17 3 -5 21 -33 41 -61 19 -29 35
-56 35 -61 0 -4 -14 -10 -32 -14 -22 -4 -41 0 -65 14 -65 38 -79 22 -39 -43
18 -30 22 -47 18 -87 -4 -46 -3 -50 17 -50 14 0 27 12 41 40 11 22 26 40 33
40 6 0 22 3 34 6 21 6 21 4 16 -71 l-6 -77 28 4 c26 3 33 12 66 93 l37 89 64
21 c52 17 64 24 66 44 6 41 -19 51 -89 35 -68 -16 -62 -18 -144 46 -77 60 -76
59 -103 49z"/>
<path d="M1812 4514 c-35 -15 -39 -41 -6 -36 37 6 75 25 71 36 -5 16 -28 16
-65 0z"/>
<path d="M1678 4461 c-48 -20 -52 -46 -6 -37 38 8 67 32 53 44 -6 5 -26 2 -47
-7z"/>
<path d="M1528 4389 c-24 -12 -35 -24 -32 -34 5 -11 13 -10 50 8 41 19 52 37
28 43 -5 2 -26 -6 -46 -17z"/>
<path d="M1399 4317 c-35 -24 -49 -47 -27 -47 18 0 78 38 78 49 0 21 -19 20
-51 -2z"/>
<path d="M1258 4227 c-29 -23 -37 -47 -16 -47 18 0 79 50 73 61 -10 14 -28 10
-57 -14z"/>
<path d="M1130 4130 c-26 -23 -31 -33 -23 -41 9 -9 21 -5 48 15 34 26 41 46
19 52 -5 2 -25 -10 -44 -26z"/>
<path d="M1018 4031 c-30 -29 -36 -51 -15 -51 19 0 70 57 63 69 -10 15 -17 13
-48 -18z"/>
<path d="M2198 4019 c-10 -5 -18 -19 -18 -29 0 -11 -4 -20 -10 -20 -5 0 -19
-9 -30 -20 -11 -11 -20 -24 -20 -30 0 -5 9 -19 20 -30 18 -18 33 -20 148 -20
135 0 172 11 172 49 0 17 -29 51 -43 51 -3 0 -18 12 -32 26 -22 21 -32 25 -60
20 -19 -4 -36 -2 -40 4 -8 13 -65 13 -87 -1z"/>
<path d="M3117 3981 c-30 -33 -35 -56 -11 -65 32 -12 140 -6 160 9 18 14 18
16 -15 45 -22 19 -41 28 -52 25 -9 -3 -20 -1 -24 5 -11 17 -29 11 -58 -19z"/>
<path d="M904 3915 c-17 -23 -24 -39 -18 -45 13 -13 79 54 70 69 -12 18 -24
13 -52 -24z"/>
<path d="M805 3799 c-25 -31 -29 -54 -8 -54 16 0 65 63 58 75 -10 17 -22 12
-50 -21z"/>
<path d="M714 3671 c-19 -30 -24 -45 -16 -53 14 -14 23 -7 46 36 14 26 16 40
9 47 -8 8 -19 0 -39 -30z"/>
<path d="M631 3531 c-20 -38 -19 -51 4 -51 14 0 47 68 40 81 -11 18 -25 9 -44
-30z"/>
<path d="M565 3394 c-16 -34 -15 -64 3 -64 12 0 43 80 36 91 -10 17 -22 9 -39
-27z"/>
<path d="M1132 3322 c-10 -10 -24 -16 -30 -14 -21 7 -63 -28 -78 -65 -9 -19
-28 -46 -44 -59 -48 -41 -48 -106 -1 -140 13 -10 12 -17 -12 -51 -15 -21 -27
-43 -27 -49 0 -5 -12 -20 -25 -33 -26 -24 -29 -52 -10 -81 6 -8 15 -28 20 -45
12 -36 44 -44 67 -18 17 18 230 460 243 501 17 56 -60 97 -103 54z"/>
<path d="M4780 2415 c-12 -15 -17 -59 -36 -305 -3 -47 -8 -88 -10 -91 -2 -3
-4 -50 -5 -103 -1 -106 11 -136 58 -136 26 0 63 32 63 55 0 8 6 15 13 15 8 0
24 11 36 24 17 18 22 34 20 63 -2 24 3 48 14 63 34 49 12 140 -34 140 -25 0
-35 25 -21 53 26 54 34 168 12 175 -8 3 -26 18 -40 34 -27 31 -51 36 -70 13z"/>
<path d="M5166 1558 c-14 -46 -15 -78 -1 -78 17 0 21 6 29 53 6 30 4 37 -9 37
-9 0 -17 -6 -19 -12z"/>
<path d="M5121 1393 c-14 -49 -14 -53 3 -53 17 0 40 54 32 75 -10 26 -25 17
-35 -22z"/>
<path d="M988 1307 c-9 -7 -20 -26 -24 -43 -4 -16 -13 -36 -20 -44 -17 -20
-21 -97 -7 -111 7 -7 9 -32 6 -64 -5 -48 -3 -56 20 -79 15 -15 37 -26 53 -26
16 0 34 -10 46 -25 11 -14 30 -25 44 -25 30 0 64 33 64 63 0 40 -79 310 -98
336 -22 29 -59 37 -84 18z"/>
<path d="M5076 1262 c-19 -38 -21 -62 -3 -62 18 0 42 69 29 82 -7 7 -15 0 -26
-20z"/>
<path d="M5007 1115 c-21 -44 -21 -45 1 -45 19 0 56 62 45 74 -14 14 -30 4
-46 -29z"/>
<path d="M4937 991 c-20 -35 -22 -51 -4 -51 13 0 47 50 47 69 0 21 -26 11 -43
-18z"/>
<path d="M4851 865 c-24 -36 -23 -52 3 -42 21 8 49 54 41 67 -10 17 -19 12
-44 -25z"/>
<path d="M4761 749 c-17 -23 -20 -34 -12 -42 9 -9 18 -4 36 18 13 17 24 36 25
43 0 22 -26 12 -49 -19z"/>
<path d="M4655 638 c-20 -24 -23 -33 -13 -39 14 -9 68 36 68 58 0 23 -27 14
-55 -19z"/>
<path d="M4557 542 c-49 -51 -29 -71 24 -24 26 23 29 30 17 40 -12 9 -20 6
-41 -16z"/>
<path d="M4444 448 c-16 -12 -31 -23 -33 -25 -3 -2 0 -8 6 -14 14 -14 73 24
73 47 0 20 -13 18 -46 -8z"/>
<path d="M4315 355 c-22 -18 -27 -27 -18 -36 8 -8 20 -5 47 16 34 26 39 45 13
45 -7 -1 -25 -12 -42 -25z"/>
<path d="M3947 357 c-10 -7 -24 -41 -32 -77 -8 -36 -17 -75 -20 -88 -4 -15
-24 -31 -61 -50 -46 -22 -54 -30 -52 -51 5 -42 30 -48 88 -21 l51 24 82 -41
c63 -31 87 -38 105 -32 12 5 22 12 22 16 0 4 -21 29 -47 56 -47 47 -47 49 -28
63 12 9 31 13 48 10 15 -3 41 -9 57 -12 22 -5 30 -3 30 8 0 8 -13 27 -30 43
-16 16 -30 36 -30 44 0 9 -5 33 -10 53 -13 47 -36 41 -50 -13 -7 -27 -20 -43
-39 -54 -35 -18 -38 -12 -48 77 -6 62 -9 65 -36 45z"/>
<path d="M3285 271 c-82 -25 -90 -29 -93 -54 -3 -23 3 -29 42 -48 33 -15 54
-19 73 -14 16 5 38 7 50 6 34 -4 63 17 63 44 0 14 4 25 9 25 13 0 22 30 16 51
-9 26 -50 24 -160 -10z"/>
<path d="M4191 279 c-25 -15 -31 -23 -23 -31 13 -13 84 20 79 36 -6 18 -22 16
-56 -5z"/>
</g>
</svg>
